PathFileType	4	(X/Y/Z)	static_1_OpenSim.trc.	Data\Walking\Mocap\Sub011\Generated_files\Files_W_HJCs																																																																																																																																																															
DataRate	CameraRate	NumFrames	NumMarkers	Units	OrigDataRate	OrigDataStartFrame	OrigNumFrames																																																																																																																																																												
100	100	4	54	mm	100	185	491																																																																																																																																																												
Frame#	Time	R.ASIS			R.PSIS			S2			L.PSIS			L.ASIS			R.TH1			R.TH2			R.TH3			R.Knee			R.SH1			R.SH2			R.SH3			R.SH4			R.Ankle			R.MAnkle			R.Heel			R.LatHeel			R.PT			R.MT5			R.Toe			R.MT1			R.ProxMet1			R.ST			R.MedHeel			L.TH1			L.TH2			L.TH3			L.TH4			L.Knee			L.SH1			L.SH2			L.SH3			L.Ankle			L.MAnkle			L.Heel			L.LatHeel			L.PT			L.MT5			L.Toe			L.MT1			L.ProxMet1			L.ST			L.MedHeel			T.Med			T.Lat			T.Bot			R.Acr			L.Acr			C7			Clav			R.MKnee			L.MKnee			R_HJC			L_HJC		
		X1	Y1	Z1	X2	Y2	Z2	X3	Y3	Z3	X4	Y4	Z4	X5	Y5	Z5	X6	Y6	Z6	X7	Y7	Z7	X8	Y8	Z8	X9	Y9	Z9	X10	Y10	Z10	X11	Y11	Z11	X12	Y12	Z12	X13	Y13	Z13	X14	Y14	Z14	X15	Y15	Z15	X16	Y16	Z16	X17	Y17	Z17	X18	Y18	Z18	X19	Y19	Z19	X20	Y20	Z20	X21	Y21	Z21	X22	Y22	Z22	X23	Y23	Z23	X24	Y24	Z24	X25	Y25	Z25	X26	Y26	Z26	X27	Y27	Z27	X28	Y28	Z28	X29	Y29	Z29	X30	Y30	Z30	X31	Y31	Z31	X32	Y32	Z32	X33	Y33	Z33	X34	Y34	Z34	X35	Y35	Z35	X36	Y36	Z36	X37	Y37	Z37	X38	Y38	Z38	X39	Y39	Z39	X40	Y40	Z40	X41	Y41	Z41	X42	Y42	Z42	X43	Y43	Z43	X44	Y44	Z44	X45	Y45	Z45	X46	Y46	Z46	X47	Y47	Z47	X48	Y48	Z48	X49	Y49	Z49	X50	Y50	Z50	X51	Y51	Z51	X52	Y52	Z52	X53	Y53	Z53	X54	Y54	Z54
																																																																																																																																																																			
185	1.84	1221.679	995.949	-430.624	1047.442	1009.649	-498.148	1046.919	991.832	-556.106	1053.342	1007.124	-607.017	1241.122	985.328	-657.883	1252.646	702.156	-417.146	1196.443	701.484	-355.508	1180.279	593.725	-374.682	1148.487	465.998	-388.439	1143.458	353.713	-380.783	1136.765	241.196	-387.208	1060.838	360.52	-378.642	1056.705	246.55	-376.701	1090.54	90.975	-407.014	1104.276	98.632	-481.05	1022.42	65.201	-450.709	1050.852	41.949	-407.068	1122.063	41.529	-389.873	1212.19	35.513	-378.801	1283.041	45.382	-432.345	1229.938	44.831	-474.474	1190.402	64.04	-472.555	1130.612	41.923	-488.219	1059.284	38.429	-485.694	1230.152	723.013	-725.178	1211.973	617.207	-705.951	1149.784	726.589	-756.257	1134.126	620.939	-728.218	1148.182	449.296	-698.016	1162.497	361.611	-695.895	1087.068	372.251	-728.464	1073.239	263.706	-724.522	1097.2	79.255	-690.634	1112.005	101.492	-612.395	1028.28	61.224	-649.64	1055.32	34.944	-691.479	1123.469	37.621	-704.892	1215.556	29.749	-715.944	1290.883	42.41	-657.793	1233.116	42.242	-618.547	1185.678	67.025	-618.867	1137.75	38.258	-606.427	1078.269	40.157	-610.738	1006.006	260.098	-490.031	1002.969	262.948	-452.9	1020.091	230.097	-462.183	1116.807	1394.121	-401.329	1148.901	1386.118	-735.859	1079.346	1423.405	-570.558	1209.64	1347.318	-559.66	1136.463	462.883	-506.624	1132.378	459.199	-595.323	1174.495	854.874	-451.091	1183.772	852.103	-639.36
186	1.85	1221.661	995.961	-430.593	1047.469	1009.645	-498.113	1046.954	991.792	-556.037	1053.343	1007.095	-606.986	1241.096	985.326	-657.878	1252.732	702.129	-417.173	1196.503	701.441	-355.47	1180.362	593.654	-374.712	1148.596	465.981	-388.447	1143.511	353.704	-380.777	1136.819	241.175	-387.271	1060.868	360.508	-378.661	1056.727	246.558	-376.712	1090.618	90.973	-407.03	1104.3	98.627	-481.066	1022.414	65.224	-450.649	1050.87	41.93	-407.068	1121.955	41.765	-389.823	1212.152	35.506	-378.804	1283.01	45.369	-432.364	1229.932	44.829	-474.429	1190.403	64.006	-472.807	1130.529	41.919	-488.268	1059.209	38.423	-485.67	1230.157	723.013	-725.194	1212.035	617.216	-705.949	1149.809	726.591	-756.287	1134.198	620.901	-728.247	1148.25	449.291	-697.993	1162.53	361.618	-695.846	1087.131	372.294	-728.45	1073.284	263.756	-724.517	1097.109	79.235	-690.736	1112.072	101.479	-612.404	1028.288	61.213	-649.628	1055.317	34.937	-691.499	1123.467	37.623	-704.908	1215.544	29.77	-715.953	1290.866	42.386	-657.787	1233.076	42.253	-618.538	1185.555	66.873	-618.926	1137.744	38.271	-606.419	1078.289	40.213	-610.716	1006.051	260.106	-490.045	1003.065	262.975	-452.941	1020.144	230.13	-462.176	1116.773	1394.122	-401.333	1148.795	1386.108	-735.884	1079.349	1423.419	-570.616	1209.547	1347.28	-559.658	1136.528	462.887	-506.646	1132.425	459.202	-595.282	1174.532	854.88	-451.047	1183.787	852.09	-639.318
187	1.86	1221.646	995.987	-430.581	1047.467	1009.585	-498.081	1046.967	991.748	-556.004	1053.349	1007.067	-606.975	1241.063	985.356	-657.89	1252.821	702.137	-417.233	1196.565	701.461	-355.449	1180.453	593.683	-374.721	1148.735	465.992	-388.452	1143.545	353.729	-380.78	1136.848	241.161	-387.233	1060.911	360.528	-378.677	1056.758	246.639	-376.722	1090.555	91.01	-406.98	1104.273	98.627	-481.089	1022.421	65.233	-450.722	1050.839	41.95	-407.057	1121.959	41.578	-389.897	1212.122	35.519	-378.815	1283.002	45.405	-432.364	1229.887	44.812	-474.478	1190.327	64.068	-472.568	1130.492	42.009	-488.257	1059.2	38.408	-485.728	1230.18	723.015	-725.179	1212.084	617.231	-705.911	1149.964	726.559	-756.222	1134.312	620.929	-728.154	1148.28	449.277	-697.956	1162.541	361.644	-695.811	1087.191	372.298	-728.396	1073.287	263.764	-724.495	1097.2	79.248	-690.583	1112.055	101.466	-612.405	1028.323	61.252	-649.584	1055.314	34.96	-691.529	1123.455	37.631	-704.907	1215.5	29.754	-715.971	1290.852	42.379	-657.79	1233.056	42.255	-618.533	1185.535	66.949	-618.916	1137.711	38.327	-606.45	1078.276	40.222	-610.749	1006.096	260.159	-490.059	1003.105	263.002	-452.946	1020.385	229.792	-462.479	1116.72	1394.083	-401.313	1148.639	1386.08	-735.928	1079.316	1423.361	-570.595	1209.499	1347.288	-559.637	1136.605	462.862	-506.653	1132.446	459.206	-595.259	1174.591	854.881	-451.043	1183.828	852.102	-639.315
188	1.87	1221.644	996.021	-430.553	1047.465	1009.542	-498.095	1047.008	991.703	-555.986	1053.364	1007.03	-606.912	1241.051	985.389	-657.872	1252.884	702.159	-417.282	1196.599	701.473	-355.452	1180.527	593.709	-374.682	1148.838	466.002	-388.443	1143.617	353.754	-380.796	1136.89	241.181	-387.222	1060.955	360.582	-378.685	1056.77	246.611	-376.731	1090.578	91.018	-407.027	1104.422	98.582	-481.011	1022.405	65.261	-450.693	1050.889	41.953	-407.1	1121.932	41.621	-389.89	1212.1	35.537	-378.814	1282.953	45.389	-432.351	1229.884	44.881	-474.439	1190.309	64.106	-472.58	1130.42	42.021	-488.257	1059.232	38.459	-485.679	1230.284	723.082	-725.108	1212.139	617.245	-705.902	1150.004	726.549	-756.208	1134.362	620.911	-728.168	1147.9	449.44	-698.087	1162.588	361.674	-695.78	1087.234	372.335	-728.368	1073.303	263.769	-724.469	1097.166	79.215	-690.568	1112.076	101.511	-612.409	1028.303	61.253	-649.647	1055.341	34.964	-691.475	1123.416	37.692	-704.914	1215.481	29.8	-715.961	1290.84	42.425	-657.819	1233.027	42.267	-618.54	1185.497	66.978	-618.903	1137.67	38.305	-606.428	1078.281	40.168	-610.751	1006.132	260.208	-490.077	1003.171	263.017	-452.976	1020.419	229.81	-462.488	1116.677	1394.072	-401.289	1148.623	1386.067	-735.888	1079.293	1423.31	-570.62	1209.451	1347.28	-559.633	1136.666	462.866	-506.652	1132.479	459.234	-595.236	1174.658	854.893	-451.018	1183.895	852.114	-639.289
